<svg xmlns="http://www.w3.org/2000/svg" width="30" height="32.433" viewBox="0 0 30 32.433">
  <g>
    <g fill="none" stroke="#fff">
      <g>
        <path d="M.5 29.433h29"/>
        <path d="M.5 26.433v6"/>
        <path d="M29.5 26.433v6"/>
      </g>
      <path d="M21.255.499a3.377 3.377 0 0 1 2.678 3.065q.459 3.044 1.034 6.073a1.278 1.278 0 0 0 .6.822 3.294 3.294 0 0 1 2.028 3.2c.005 1.581-.026 3.162.027 4.742.01.3.364.579.517.886a3.353 3.353 0 0 1 .316.878c.053.294-.028.609.019.905.14.889-.243 1.25-1.208 1.131a6.229 6.229 0 0 0-.98.048c0 .774.022 1.5-.005 2.231a1.89 1.89 0 0 1-3.78.027c-.052-.728.186-1.838-.216-2.1a5.3 5.3 0 0 0-2.515-.208c-4.072-.013-8.145.017-12.216-.024-.872-.009-1.181.234-1.092 1.027a7.224 7.224 0 0 1-.023 1.511 1.746 1.746 0 0 1-1.826 1.653 1.789 1.789 0 0 1-1.913-1.69c-.054-.768-.011-1.543-.011-2.408L.5 22.125v-2.826c.724.066.9-.262.885-.891-.044-1.58-.017-3.161-.013-4.742A3.308 3.308 0 0 1 3.4 10.458a1.284 1.284 0 0 0 .6-.821q.57-3.028 1.034-6.073A3.378 3.378 0 0 1 7.71.499Zm5.639 18.706c0-2.091.065-4.075-.023-6.053a2.588 2.588 0 0 0-2.678-2.333q-9.717-.037-19.435 0A2.427 2.427 0 0 0 2.2 12.772c-.151 2.125-.043 4.266-.043 6.434ZM4.653 10.112H15.7c.666-1.785 1.671-2.627 3.146-2.647s2.493.8 3.252 2.643h2.2c-.385-2.354-.715-4.649-1.151-6.927-.266-1.39-1.144-2-2.675-2.01q-6-.022-12 0c-1.498.007-2.35.568-2.622 1.928-.463 2.306-.8 4.634-1.2 7.018M1.2 21.455h26.526v-1.481H1.2Zm2.174.8c0 .878-.056 1.679.018 2.47a1 1 0 0 0 1.238.971A1.673 1.673 0 0 0 5.7 24.68a11.407 11.407 0 0 0 .049-2.428Zm19.83-.058c0 .911-.02 1.678.006 2.443a.986.986 0 0 0 1.146 1.053 1.762 1.762 0 0 0 1.181-1.026 9.976 9.976 0 0 0 .054-2.406c-.354-.027-.6-.058-.845-.062-.464-.009-.927 0-1.541 0m-2.038-12.08a2.163 2.163 0 0 0-2.4-1.974 2 2 0 0 0-2.1 1.974Z"/>
      <path d="M7.969 14.83a2.014 2.014 0 1 1-4 .1 2.163 2.163 0 0 1 1.959-2.289 2.139 2.139 0 0 1 2.045 2.191m-.676.087c-.06-.925-.52-1.458-1.306-1.469a1.426 1.426 0 0 0-.038 2.841c.815.016 1.246-.508 1.345-1.373"/>
      <path d="M25.003 14.902a2.014 2.014 0 1 1-1.984-2.264 2.16 2.16 0 0 1 1.984 2.264m-.672-.016c-.079-.87-.514-1.428-1.307-1.439a1.427 1.427 0 0 0-.052 2.842c.818.024 1.245-.505 1.359-1.4"/>
    </g>
  </g>
</svg>
