<svg xmlns="http://www.w3.org/2000/svg" width="70.194" height="35.162" viewBox="0 0 70.194 35.162">
  <g>
    <g>
      <path d="M69.849 0a.8.8 0 0 1 .343.718.58.58 0 0 1-.46.56c-.094.015-19.712 0-19.808 0H25.94c.012.255.033.5.033.74V33.95h2.418a.605.605 0 0 1 .651.562c.024.272-.131.491-.48.644H22.03a.664.664 0 0 1-.434-.547.584.584 0 0 1 .47-.644 1.249 1.249 0 0 1 .241-.019h2.476V1.762c0-.153.028-.306.046-.484H.641A.6.6 0 0 1 .025.84.593.593 0 0 1 .308.154.468.468 0 0 0 .362.107Z" fill="#fff"/>
      <g>
        <path d="M41.014 15.947h-.983c-.271 0-.314-.042-.315-.317v-.96h.536c.2 0 .4-.005.606 0 .112 0 .15-.031.148-.145-.006-.293 0-.586 0-.878 0-1.621-.007-3.241 0-4.862a3.944 3.944 0 0 1 3.173-3.8 29.635 29.635 0 0 1 6.184-.57 25.248 25.248 0 0 1 5.714.693 3.593 3.593 0 0 1 2.774 2.961 4.052 4.052 0 0 1 .064.828c.005 1.848 0 3.7 0 5.544v.181h1.241v1.284h-1.241v14.3a3.123 3.123 0 0 1-.233 1.417 2.539 2.539 0 0 1-1.744 1.423 26.1 26.1 0 0 1-3.831.652 36.149 36.149 0 0 1-4.707.105 29.7 29.7 0 0 1-5.187-.672 2.712 2.712 0 0 1-2.168-2.216 3.426 3.426 0 0 1-.039-.6V15.946m1.893-8.853c-.047.049-.062.062-.074.077a2.638 2.638 0 0 0-.575 1.7v6.392a1.124 1.124 0 0 0 .264.736c.692.856 1.374 1.719 2.065 2.576a1.018 1.018 0 0 1 .234.669v4.832a1.061 1.061 0 0 1-.244.7c-.7.878-1.4 1.762-2.1 2.643a.861.861 0 0 0-.2.557v2.605a1.3 1.3 0 0 0 .986 1.228 25.975 25.975 0 0 0 5.51.742 32.791 32.791 0 0 0 4.222-.115 29.059 29.059 0 0 0 3.711-.634 1.274 1.274 0 0 0 .938-1.186c0-.883-.014-1.767-.018-2.65a.882.882 0 0 0-.207-.569c-.708-.888-1.409-1.782-2.118-2.669a.95.95 0 0 1-.213-.628q.006-2.408 0-4.817a1.029 1.029 0 0 1 .238-.681c.7-.874 1.394-1.755 2.091-2.633a.829.829 0 0 0 .207-.524V8.537a2.355 2.355 0 0 0-.092-.595 1.951 1.951 0 0 0-.479-.843l-.043.419h-3.867V6.1c0-.224-.039-.267-.266-.3-.035-.005-.07-.011-.1-.014a23.259 23.259 0 0 0-3.055-.13c-.882.029-1.763.1-2.644.156-.252.017-.331.1-.337.357-.01.394-.005.787-.006 1.181v.185h-3.814Zm-.613 10.687v7.779l.035.025a.326.326 0 0 1 .042-.069c.323-.407.645-.815.972-1.218a1.025 1.025 0 0 0 .233-.669c.008-1.124.034-2.249.036-3.373a2.413 2.413 0 0 0-.106-.908 6.252 6.252 0 0 0-1.2-1.568m15.326-.006c-.05.056-.077.084-.1.115-.316.394-.628.79-.947 1.181a.985.985 0 0 0-.225.656v3.891a1.1 1.1 0 0 0 .252.712l.937 1.15a.811.811 0 0 0 .082.075Z" fill="#fff"/>
        <path d="M43.152 13.806a14.7 14.7 0 0 1 7.05-1.723 15.508 15.508 0 0 1 6.64 1.734c-.031.035-.05.058-.071.079l-3.047 3.015a.919.919 0 0 1-.691.28q-3.082-.007-6.166 0a.761.761 0 0 1-.58-.234c-.99-.995-1.988-1.982-2.982-2.973-.049-.049-.092-.105-.154-.178m11.441.4a13.077 13.077 0 0 0-9.252 0c.031.039.044.06.061.077.5.5.992 1.006 1.5 1.5a.556.556 0 0 0 .352.134c1.8.008 3.594.005 5.391.006a.558.558 0 0 0 .419-.173c.477-.48.957-.956 1.436-1.434.027-.028.051-.059.092-.107" fill="#fff"/>
        <path fill="none" stroke="#fff" d="m42.097 16.293-7 6"/>
        <path fill="none" stroke="#fff" d="m57.928 16.293 7 6"/>
        <path d="M56.913 29.757c-.784.166-1.565.347-2.352.493a25.2 25.2 0 0 1-5.23.394 26.208 26.208 0 0 1-6.126-.887c-.155-.041-.168-.09-.065-.216a1.789 1.789 0 0 1 .122-.135q1.5-1.5 3-2.994a.825.825 0 0 1 .622-.253q3.12.007 6.241 0a.67.67 0 0 1 .511.21q1.541 1.555 3.088 3.1c.07.07.129.151.193.227 0 .019-.006.039-.009.058m-2.467-.767.031-.053a.906.906 0 0 1-.137-.095c-.4-.393-.8-.784-1.192-1.185a.793.793 0 0 0-.6-.254c-1.6 0-3.209 0-4.814-.005a1.678 1.678 0 0 0-1.282.577c-.292.314-.6.612-.9.916-.029.029-.055.06-.1.1a28.7 28.7 0 0 0 9-.008" fill="#fff"/>
      </g>
    </g>
  </g>
</svg>
