<svg xmlns="http://www.w3.org/2000/svg" width="28" height="27.969" viewBox="0 0 28 27.969">
  <g id="Buchen_icon" data-name="Buchen icon" transform="translate(0 0)">
    <path id="Pfad_58" data-name="Pfad 58" d="M7.011,1.993c0-.334-.012-.649,0-.962A1.539,1.539,0,0,1,7.126.5.983.983,0,0,1,8.17.016a.9.9,0,0,1,.809.861c.023.364.036.729.054,1.1h9.956c0-.188,0-.375,0-.563s.035-.39.032-.584a.993.993,0,0,1,1.972.235c.011.3,0,.6,0,.924h.267c1.238.006,2.476.01,3.714.02a2.938,2.938,0,0,1,2.937,2.359,3.4,3.4,0,0,1,.071.751q.014,9.65.015,19.3a6.466,6.466,0,0,1-.108,1.2,2.908,2.908,0,0,1-2.451,2.285,6.877,6.877,0,0,1-.848.055q-10.594,0-21.189,0a3.648,3.648,0,0,1-1.676-.308A2.866,2.866,0,0,1,.038,25.275a10.006,10.006,0,0,1-.038-1Q0,14.689.006,5.106a2.957,2.957,0,0,1,1.8-2.849,2.554,2.554,0,0,1,1.1-.243Q4.819,2,6.733,1.993h.278M2.016,10c0,.051-.009.088-.009.126q0,1.375,0,2.749,0,5.991.008,11.982a1.38,1.38,0,0,0,.16.647,1.037,1.037,0,0,0,.99.475q7.013,0,14.025,0,3.819,0,7.638,0a1.181,1.181,0,0,0,.892-.34,1.091,1.091,0,0,0,.261-.823q.01-7.327.02-14.655c0-.049-.006-.1-.009-.16ZM26,7.987c0-.088,0-.157,0-.226-.012-.947-.026-1.894-.034-2.842a.886.886,0,0,0-.231-.584,1.147,1.147,0,0,0-.943-.348q-10.791,0-21.582,0a2.139,2.139,0,0,0-.394.038.886.886,0,0,0-.775.853C2.014,5.9,2.02,6.925,2.013,7.948c0,.01.011.021.022.04Z" transform="translate(0 0)" fill="#fff"/>
    <path id="Pfad_59" data-name="Pfad 59" d="M268.8,435.035l1.972-1.688q2.123-1.818,4.246-3.635a1.017,1.017,0,0,1,1.17-.224.974.974,0,0,1,.31,1.558,10.922,10.922,0,0,1-.909.83q-2.323,1.992-4.652,3.978c-.485.414-.971.828-1.462,1.235a1.012,1.012,0,0,1-1.507-.047q-1.517-1.5-3-3.028a.931.931,0,0,1,.23-1.414.866.866,0,0,1,1.161.055c.771.739,1.528,1.491,2.291,2.238.045.044.091.086.151.143" transform="translate(-256.747 -416.432)" fill="#fff"/>
  </g>
</svg>