<svg xmlns="http://www.w3.org/2000/svg" width="32" height="22.908" viewBox="0 0 32 22.908">
  <g id="Burger_Button" data-name="Burger Button" transform="translate(0.001 0)">
    <path id="Pfad_55" data-name="Pfad 55" d="M16.682,4.007q-6.58,0-13.16,0C1.7,4,.815,3.356.783,2.056S1.662.015,3.425.014C12.309.006,21.193.019,30.077,0c1.215,0,2.242.226,2.6,1.548.37,1.359-.642,2.44-2.338,2.449-4.553.024-9.106.008-13.659.009" transform="translate(-0.756 0)" fill="#fff"/>
    <path id="Pfad_56" data-name="Pfad 56" d="M16.084,273.06q6.5,0,12.993,0c1.977,0,2.873.613,2.9,1.953s-.9,2.039-2.816,2.04q-13.243.007-26.486.011c-1.14,0-2.13-.19-2.556-1.395-.492-1.391.549-2.592,2.3-2.6,4.553-.025,9.106-.008,13.659-.009" transform="translate(0 -263.601)" fill="#fff"/>
    <path id="Pfad_57" data-name="Pfad 57" d="M16.682,549.82q-6.58,0-13.16,0c-1.826,0-2.71-.642-2.747-1.941-.038-1.355.893-2.05,2.8-2.051,8.829,0,17.657.006,26.486-.012,1.213,0,2.243.219,2.608,1.541.375,1.358-.636,2.447-2.329,2.456-4.553.025-9.106.008-13.659.009" transform="translate(-0.749 -526.916)" fill="#fff"/>
  </g>
</svg>