<svg xmlns="http://www.w3.org/2000/svg" width="35.915" height="25.671" viewBox="0 0 35.915 25.671">
  <path id="Nachricht_icon" data-name="Nachricht icon" d="M17.917,25.669c-4.368,0-8.736.007-13.1,0A4.723,4.723,0,0,1,.067,21.708a4.144,4.144,0,0,1-.06-.749C0,15.55-.007,10.141.01,4.732A4.7,4.7,0,0,1,3.864.093,5.2,5.2,0,0,1,4.874,0Q17.96,0,31.045,0a4.73,4.73,0,0,1,4.863,4.848q.016,7.982,0,15.963a4.722,4.722,0,0,1-4.887,4.854q-6.552.005-13.1,0M2.521,3.575l-.154.02a9.93,9.93,0,0,0-.2,1.392q-.021,7.85-.008,15.7A2.594,2.594,0,0,0,4.976,23.5q12.991,0,25.982,0a3.506,3.506,0,0,0,.785-.066,2.575,2.575,0,0,0,2.008-2.651c.008-1.895,0-3.79,0-5.685q0-5.045,0-10.09a2.477,2.477,0,0,0-.336-1.437c-.135.1-.245.185-.352.271L21.029,13.5a4.574,4.574,0,0,1-6.125.01Q10.071,9.64,5.245,5.761L2.521,3.575M4.31,2.208c.183.157.274.24.369.317q5.8,4.653,11.6,9.306a2.427,2.427,0,0,0,3.352.009q5.654-4.532,11.3-9.068c.2-.162.4-.33.682-.563Z" transform="translate(-0.001 0)" fill="#fff"/>
</svg>