<svg xmlns="http://www.w3.org/2000/svg" width="46" height="49" viewBox="0 0 58.618 61.444">
  <g>
    <g fill="#fff">
      <path d="M4.232 41.71V14.297c-.69.271-1.28.5-1.867.733a1.592 1.592 0 0 1-2.241-.789 1.542 1.542 0 0 1 1.007-2.065Q14.902 6.124 28.688.107a1.865 1.865 0 0 1 1.336.033c6.539 2.852 13.061 5.743 19.591 8.617 2.585 1.138 5.184 2.247 7.772 3.379 1.058.463 1.457 1.246 1.105 2.1a1.607 1.607 0 0 1-2.338.756c-.53-.221-1.063-.438-1.724-.709v27.49a11.474 11.474 0 0 1 1.275.008 1.488 1.488 0 0 1 1.447 1.482 1.525 1.525 0 0 1-1.44 1.6 8.378 8.378 0 0 1-.932.014H3.835c-1.609 0-2.343-.466-2.38-1.507s.684-1.554 2.279-1.607c.138-.005.273-.027.498-.053Zm46.957.01c.019-.325.042-.531.042-.737V14.036a1.362 1.362 0 0 0-.046-.612c-.175-.316-.37-.725-.664-.856-6.77-3.011-13.558-5.981-20.331-8.986a1.912 1.912 0 0 0-1.726-.019c-6.58 2.928-13.16 5.86-19.783 8.689a1.858 1.858 0 0 0-1.314 2.05c.028 8.775.015 17.55.018 26.325 0 .362.032.724.05 1.092Z"/>
      <g stroke="#fff">
        <path d="M35.402 15.227a3.046 3.046 0 0 1 2.415 2.764q.414 2.746.932 5.478a1.153 1.153 0 0 0 .539.742 2.971 2.971 0 0 1 1.829 2.885c0 1.426-.024 2.852.024 4.277.009.27.329.523.467.8a3.024 3.024 0 0 1 .285.792c.048.266-.025.549.017.817.126.8-.22 1.128-1.089 1.02a5.619 5.619 0 0 0-.883.043c0 .7.02 1.356 0 2.012a1.705 1.705 0 0 1-3.409.025c-.047-.657.168-1.658-.195-1.89a4.783 4.783 0 0 0-2.268-.192c-3.673-.012-7.346.015-11.019-.021-.786-.008-1.065.211-.985.926a6.516 6.516 0 0 1-.021 1.363 1.575 1.575 0 0 1-1.647 1.491 1.614 1.614 0 0 1-1.725-1.524c-.048-.693-.01-1.391-.01-2.172l-1.978-.13v-2.552c.653.059.814-.236.8-.8-.041-1.429-.017-2.854-.013-4.281a2.984 2.984 0 0 1 1.825-2.89 1.158 1.158 0 0 0 .543-.74q.514-2.731.933-5.478a3.047 3.047 0 0 1 2.412-2.765ZM40.488 32.1c0-1.886.059-3.675-.021-5.46a2.334 2.334 0 0 0-2.415-2.1q-8.765-.033-17.53 0a2.189 2.189 0 0 0-2.309 1.757c-.136 1.917-.039 3.848-.039 5.8Zm-20.061-8.202h9.967c.6-1.61 1.507-2.37 2.837-2.387s2.249.724 2.933 2.384h1.987c-.348-2.124-.645-4.194-1.038-6.248a2.117 2.117 0 0 0-2.413-1.813q-5.41-.02-10.82 0c-1.36.005-2.128.511-2.374 1.734-.418 2.08-.719 4.18-1.08 6.33m-3.11 10.229h23.922v-1.333H17.316Zm1.961.718c0 .792-.051 1.515.016 2.228a.906.906 0 0 0 1.117.876 1.509 1.509 0 0 0 .966-.913 10.289 10.289 0 0 0 .044-2.19Zm17.886-.052c0 .822-.018 1.513.005 2.2a.89.89 0 0 0 1.034.95 1.589 1.589 0 0 0 1.065-.925 9 9 0 0 0 .049-2.17c-.319-.024-.54-.052-.762-.056-.418-.008-.836 0-1.39 0m-1.842-10.888a1.951 1.951 0 0 0-2.165-1.777 1.807 1.807 0 0 0-1.9 1.781Z"/>
        <path d="M22.808 28.233c-.054-.835-.469-1.315-1.178-1.325a1.286 1.286 0 0 0-.035 2.563c.735.014 1.124-.458 1.213-1.238"/>
        <path d="M38.176 28.205c-.071-.784-.464-1.288-1.179-1.3a1.287 1.287 0 0 0-.047 2.563c.738.021 1.123-.456 1.226-1.266"/>
      </g>
    </g>
    <g fill="none" stroke="#fff" stroke-linecap="round" stroke-width="3">
      <path d="M6.108 54.944h49.298"/>
      <path d="M4.108 49.944v10"/>
      <path d="M55.406 49.944v10"/>
    </g>
  </g>
</svg>
