<svg xmlns="http://www.w3.org/2000/svg" width="46" height="48" viewBox="0 0 58.618 61.444">
  <g>
    <g fill="#fff">
      <path d="M4.232 41.71V14.297c-.69.271-1.28.5-1.867.733a1.592 1.592 0 0 1-2.241-.789 1.542 1.542 0 0 1 1.007-2.065Q14.902 6.124 28.688.107a1.865 1.865 0 0 1 1.336.033c6.539 2.852 13.061 5.743 19.591 8.617 2.585 1.138 5.184 2.247 7.772 3.379 1.058.463 1.457 1.246 1.105 2.1a1.607 1.607 0 0 1-2.338.756c-.53-.221-1.063-.438-1.724-.709v27.49a11.474 11.474 0 0 1 1.275.008 1.488 1.488 0 0 1 1.447 1.482 1.525 1.525 0 0 1-1.44 1.6 8.378 8.378 0 0 1-.932.014H3.835c-1.609 0-2.343-.466-2.38-1.507s.684-1.554 2.279-1.607c.138-.005.273-.027.498-.053Zm46.957.01c.019-.325.042-.531.042-.737V14.036a1.362 1.362 0 0 0-.046-.612c-.175-.316-.37-.725-.664-.856-6.77-3.011-13.558-5.981-20.331-8.986a1.912 1.912 0 0 0-1.726-.019c-6.58 2.928-13.16 5.86-19.783 8.689a1.858 1.858 0 0 0-1.314 2.05c.028 8.775.015 17.55.018 26.325 0 .362.032.724.05 1.092Z"/>
      <path d="M25.83 16.145h-.583c-5.615 0-5.808.18-7.992 5.047a24.921 24.921 0 0 1-2.661 4.331 9.7 9.7 0 0 0-1.651 7.832c.426 2.2 5.82 4.924 8.125 4.311a3.544 3.544 0 0 0 1.838-.923c1.018-1.346 2.369-1.43 3.907-1.361 1.744.077 3.495.02 5.242.017 1.836 0 3.552-.164 5.064 1.46a4.619 4.619 0 0 0 3.895.733 33.311 33.311 0 0 0 6.068-3.15 1.956 1.956 0 0 0 .712-1.238c.571-2.79-1.573-6.407-4.307-7.513a5.47 5.47 0 0 1-1.766-1.247c-1.577-1.602-2.991-3.36-4.648-4.877a13.685 13.685 0 0 0-11.243-3.422M14.8 33.194l-.77-.247a47.838 47.838 0 0 1 1.353-5.726 2.781 2.781 0 0 1 2.133-1.389q11.935.376 23.859 1.024a5.148 5.148 0 0 1 4.855 5.913c-.083.454-.692.824-1.2 1.394-.868-3.859-2.329-5.347-5.039-5.392-2.733-.046-4.2 1.373-5.241 5.083h-9.911c-.334-2.7-1.439-4.81-4.613-5.042-3.212-.234-4.737 1.637-5.426 4.382m25.637-8.532-.653.757c-.49-.371-1.016-.707-1.462-1.119-1.384-1.268-2.67-2.647-4.119-3.848a8.811 8.811 0 0 0-6.216-2.128c-2.192.1-2.762.577-2.779 2.6-.01 1.189 0 2.379 0 3.579-1.449 0-2.611.029-3.77-.008-1.189-.038-2.376-.14-3.692-.223.195-.55.28-.837.4-1.113 2.583-6.055 1.564-5.534 8.508-5.567 2.42-.011 4.9-.1 6.887 1.361 2.407 1.776 4.611 3.8 6.9 5.71m-13.564-4.65a9.718 9.718 0 0 1 9.723 5.17l-9.723-.451ZM39.83 30.232a3.133 3.133 0 0 1 3.339 3.057 3.2 3.2 0 0 1-3.314 3.112 3.287 3.287 0 0 1-3.277-3 3.2 3.2 0 0 1 3.252-3.169m-20.048 0a3.141 3.141 0 0 1 3.315 3.074 3.194 3.194 0 0 1-3.334 3.081 3.188 3.188 0 0 1-3.213-3.009 3.122 3.122 0 0 1 3.232-3.146"/>
    </g>
    <g fill="none" stroke="#fff" stroke-linecap="round" stroke-width="3">
      <path d="M6.217 54.944h49.298"/>
      <path d="M4.217 49.944v10"/>
      <path d="M55.515 49.944v10"/>
    </g>
  </g>
</svg>