<svg xmlns="http://www.w3.org/2000/svg" width="58" height="36" viewBox="0 0 73.062 45.052">
  <g>
    <g fill="#fff">
      <path d="M4.232 41.877V14.464c-.69.271-1.28.5-1.867.733a1.592 1.592 0 0 1-2.241-.789 1.542 1.542 0 0 1 1.007-2.065Q14.902 6.291 28.688.274a1.865 1.865 0 0 1 1.336.033c6.539 2.852 13.061 5.743 19.591 8.617 2.585 1.138 5.184 2.247 7.772 3.379 1.058.463 1.457 1.246 1.105 2.1a1.607 1.607 0 0 1-2.338.756c-.53-.221-1.063-.438-1.724-.709v27.49a11.474 11.474 0 0 1 1.275.008 1.488 1.488 0 0 1 1.447 1.482 1.525 1.525 0 0 1-1.44 1.6 8.378 8.378 0 0 1-.932.014H3.835c-1.609 0-2.343-.466-2.38-1.507s.684-1.554 2.279-1.607c.138-.005.273-.027.498-.053Zm46.957.01c.019-.325.042-.531.042-.737V14.203a1.362 1.362 0 0 0-.046-.612c-.175-.316-.37-.725-.664-.856-6.77-3.011-13.558-5.981-20.331-8.986a1.912 1.912 0 0 0-1.726-.019c-6.58 2.928-13.16 5.86-19.783 8.689a1.858 1.858 0 0 0-1.314 2.05c.028 8.775.015 17.55.018 26.325 0 .362.032.724.05 1.092Z"/>
      <path d="M26.57 17.104h-.539c-5.2 0-5.377.166-7.4 4.673a23.075 23.075 0 0 1-2.467 4.01 8.982 8.982 0 0 0-1.526 7.257c.394 2.033 5.389 4.56 7.523 3.991a3.281 3.281 0 0 0 1.7-.854c.943-1.247 2.193-1.324 3.618-1.26 1.615.072 3.236.018 4.854.016 1.7 0 3.289-.152 4.689 1.352a4.276 4.276 0 0 0 3.606.679 30.843 30.843 0 0 0 5.619-2.916 1.811 1.811 0 0 0 .659-1.146c.528-2.583-1.456-5.932-3.988-6.957a5.065 5.065 0 0 1-1.635-1.155c-1.461-1.484-2.766-3.111-4.3-4.516a12.671 12.671 0 0 0-10.413-3.174m-10.216 15.79-.716-.229a44.294 44.294 0 0 1 1.253-5.3 2.575 2.575 0 0 1 1.979-1.29q11.05.348 22.091.948a4.767 4.767 0 0 1 4.492 5.481c-.077.421-.641.763-1.113 1.291-.8-3.573-2.156-4.951-4.666-4.993-2.53-.042-3.893 1.271-4.852 4.706H25.65c-.312-2.504-1.333-4.456-4.271-4.671-2.974-.217-4.386 1.515-5.024 4.057m23.738-7.9-.6.7c-.453-.343-.94-.655-1.354-1.036-1.287-1.177-2.477-2.454-3.819-3.562a8.159 8.159 0 0 0-5.755-1.971c-2.03.1-2.558.535-2.573 2.406-.009 1.1 0 2.2 0 3.314-1.341 0-2.417.027-3.491-.007-1.1-.035-2.2-.13-3.418-.206.181-.509.259-.775.367-1.03 2.388-5.606 1.446-5.124 7.875-5.154 2.24-.011 4.54-.095 6.376 1.261 2.229 1.645 4.269 3.514 6.391 5.287M27.538 20.69a9 9 0 0 1 9 4.787l-9-.422Zm11.99 9.46a2.9 2.9 0 0 1 3.092 2.831 2.966 2.966 0 0 1-3.068 2.881 3.044 3.044 0 0 1-3.034-2.775 2.964 2.964 0 0 1 3.01-2.938m-18.56.006a2.909 2.909 0 0 1 3.07 2.849 2.957 2.957 0 0 1-3.087 2.853 2.952 2.952 0 0 1-2.975-2.786 2.891 2.891 0 0 1 2.992-2.916"/>
    </g>
    <g fill="none" stroke="#fff" stroke-linecap="round" stroke-width="3">
      <path d="M66.564 3.5v39.965"/>
      <path d="M71.564 1.5h-10"/>
      <path d="M71.564 43.465h-10"/>
    </g>
  </g>
</svg>