<svg xmlns="http://www.w3.org/2000/svg" width="53" height="54.189" viewBox="0 0 53 54.189">
  <g>
    <g fill="#fff">
      <path d="M26.434 53.688H7.696c-4.294 0-7.2-3.4-7.2-8.418V8.914C.496 3.892 3.396.5 7.696.5h37.6c4.3 0 7.2 3.391 7.2 8.417v36.356c0 5.025-2.9 8.414-7.2 8.416H26.433m.063-5.319h18.738c1.9 0 2.717-.947 2.717-3.171V8.99c0-2.226-.811-3.169-2.717-3.169H7.762c-1.907 0-2.716.943-2.716 3.169v36.209c0 2.225.812 3.171 2.717 3.171h18.738" stroke="#095172"/>
      <path d="M16.887 41.31V13.121a2.456 2.456 0 0 1 .545-1.193 2.662 2.662 0 0 1 2-.868l9.344-.042a13.7 13.7 0 0 1 3.674.4 9.616 9.616 0 0 1 3.674 1.887 9.246 9.246 0 0 1 2.517 3.157 10.066 10.066 0 0 1 1.034 4.662 10.34 10.34 0 0 1-2.618 6.674q-2.618 3.168-7.651 3.168h-7.55v10.522a2.487 2.487 0 0 1-4.966-.181m5.245-25.33a1 1 0 0 0-.291.807l.012 9.488h7.37a5.014 5.014 0 0 0 4.123-1.663 5.6 5.6 0 0 0 1.359-3.618 4.833 4.833 0 0 0-2.135-4.359 6.2 6.2 0 0 0-3.528-.921l-6.278.017a.959.959 0 0 0-.633.248"/>
    </g>
  </g>
</svg>
