<svg xmlns="http://www.w3.org/2000/svg" width="298.309" height="202.615" viewBox="0 0 298.309 202.615">
  <g id="Gruppe_524" data-name="Gruppe 524" transform="translate(-39.002 -199.805)">
    <g id="Gruppe_521" data-name="Gruppe 521">
      <g id="Ellipse_15" data-name="Ellipse 15" transform="translate(55.502 278)" fill="none" stroke="#fff" stroke-width="6">
        <circle cx="14" cy="14" r="14" stroke="none"/>
        <circle cx="14" cy="14" r="11" fill="none"/>
      </g>
      <path id="Pfad_121" data-name="Pfad 121" d="M210.223,637.162c0-12.683,5.852-16.181,16.181-16.181h23.948c10.663,0,16.181,4.972,16.181,16.181" transform="translate(-168.221 -306)" fill="none" stroke="#fff" stroke-linecap="round" stroke-width="6"/>
    </g>
    <g id="Gruppe_522" data-name="Gruppe 522" transform="translate(236)">
      <g id="Ellipse_15-2" data-name="Ellipse 15" transform="translate(55.502 278)" fill="none" stroke="#fff" stroke-width="6">
        <circle cx="14" cy="14" r="14" stroke="none"/>
        <circle cx="14" cy="14" r="11" fill="none"/>
      </g>
      <path id="Pfad_121-2" data-name="Pfad 121" d="M210.223,637.162c0-12.683,5.852-16.181,16.181-16.181h23.948c10.663,0,16.181,4.972,16.181,16.181" transform="translate(-168.221 -306)" fill="none" stroke="#fff" stroke-linecap="round" stroke-width="6"/>
    </g>
    <g id="Pfeil" transform="translate(81.5 204.086)">
      <g id="Gruppe_523" data-name="Gruppe 523">
        <path id="Pfad_122" data-name="Pfad 122" d="M446.471,553.123c-50.516-51.017-141.8-51.165-196.776,0" transform="translate(-249.695 -516.086)" fill="none" stroke="#fff" stroke-linecap="round" stroke-width="6"/>
        <line id="Linie_56" data-name="Linie 56" y2="25" transform="translate(196.971 12.414)" fill="none" stroke="#fff" stroke-linecap="round" stroke-width="6"/>
        <line id="Linie_57" data-name="Linie 57" x2="24" transform="translate(172.971 37.414)" fill="none" stroke="#fff" stroke-linecap="round" stroke-width="6"/>
      </g>
    </g>
    <g id="Pfeil-2" data-name="Pfeil" transform="translate(81.5 360.62)">
      <g id="Gruppe_523-2" data-name="Gruppe 523" transform="translate(0 0)">
        <path id="Pfad_122-2" data-name="Pfad 122" d="M0,0C43.517,51.3,141.8,51.165,196.776,0" transform="translate(0.195 0.377)" fill="none" stroke="#fff" stroke-linecap="round" stroke-width="6"/>
        <line id="Linie_56-2" data-name="Linie 56" y1="25" transform="translate(0 0)" fill="none" stroke="#fff" stroke-linecap="round" stroke-width="6"/>
        <line id="Linie_57-2" data-name="Linie 57" x1="24" transform="translate(0 0)" fill="none" stroke="#fff" stroke-linecap="round" stroke-width="6"/>
      </g>
    </g>
    <g id="Gruppe_517" data-name="Gruppe 517" transform="translate(90.372 25.123)">
      <path id="Pfad_119" data-name="Pfad 119" d="M95.8,39.111q-7.815,0-15.629,0c-3.582,0-6-2.5-6-6.19,0-10.277,0-16.456,0-26.733C74.167,2.5,76.588,0,80.172,0h31.362c3.584,0,6,2.494,6,6.189,0,10.277,0,16.456,0,26.733,0,3.7-2.419,6.187-6,6.188q-7.866,0-15.733,0m.052-3.911h15.629c1.588,0,2.266-.7,2.266-2.332,0-10.241,0-16.384,0-26.625,0-1.636-.677-2.33-2.267-2.33H80.223c-1.59,0-2.266.693-2.266,2.331,0,10.241,0,16.384,0,26.625,0,1.636.677,2.331,2.266,2.332H95.852" transform="translate(-57.538 214.835)" fill="#fcfcfc"/>
      <path id="Pfad_120" data-name="Pfad 120" d="M270,105.115V82.886a1.938,1.938,0,0,1,.43-.941A2.1,2.1,0,0,1,272,81.261l7.368-.033a10.8,10.8,0,0,1,2.9.319,7.583,7.583,0,0,1,2.9,1.488,7.291,7.291,0,0,1,1.985,2.49,7.938,7.938,0,0,1,.815,3.677,8.153,8.153,0,0,1-2.064,5.263,7.377,7.377,0,0,1-6.033,2.5h-5.954v8.3a1.961,1.961,0,0,1-3.916-.143m4.136-19.975a.786.786,0,0,0-.229.636l.009,7.482h5.812a3.954,3.954,0,0,0,3.252-1.311,4.415,4.415,0,0,0,1.072-2.853,3.811,3.811,0,0,0-1.683-3.438,4.893,4.893,0,0,0-2.782-.726l-4.951.014a.757.757,0,0,0-.5.2" transform="translate(-238.892 140.787)" fill="#fcfcfc"/>
      <line id="Linie_52" data-name="Linie 52" y2="80" transform="translate(38 252.603)" fill="none" stroke="#fff" stroke-width="4"/>
      <rect id="Rechteck_645" data-name="Rechteck 645" width="7.628" height="3.788" rx="1.894" transform="translate(34 331.709)" fill="#fff"/>
    </g>
    <g id="carXXX" transform="translate(118 36.616)">
      <g id="Ellipse_18" data-name="Ellipse 18" transform="translate(33 293.902)" fill="none" stroke="#fff" stroke-width="5">
        <circle cx="12.5" cy="12.5" r="12.5" stroke="none"/>
        <circle cx="12.5" cy="12.5" r="10" fill="none"/>
      </g>
      <g id="Ellipse_19" data-name="Ellipse 19" transform="translate(107 293.902)" fill="none" stroke="#fff" stroke-width="5">
        <ellipse cx="13" cy="12.5" rx="13" ry="12.5" stroke="none"/>
        <ellipse cx="13" cy="12.5" rx="10.5" ry="10" fill="none"/>
      </g>
      <line id="Linie_59" data-name="Linie 59" x1="54.509" transform="translate(55.669 308.909)" fill="none" stroke="#fff" stroke-linecap="round" stroke-width="4"/>
      <path id="Pfad_124" data-name="Pfad 124" d="M4137.947,1917.909c-3.574-1.319-8.578.253-8.567-12.223.419-7.826,1.275-10.971,1.275-10.971s6.473-14.313,14.61-15.524c3.8,0,44.205.767,44.205.767,4.068.77,16.937,10.467,21.446,14.757,6.293,2.518,23.363,2.812,28.373,5.15s5.758,7.517,4.735,12.65-10.145,5.394-10.145,5.394" transform="translate(-4103 -1609)" fill="none" stroke="#fff" stroke-linecap="round" stroke-linejoin="round" stroke-width="4"/>
      <line id="Linie_61" data-name="Linie 61" y2="14.71" transform="translate(61.12 270.753)" fill="none" stroke="#fff" stroke-linecap="round" stroke-width="4"/>
      <path id="Pfad_125" data-name="Pfad 125" d="M100.168,285.365H37.606c-.243,0-2.949-.668-2.169-3.01s6.906-12.044,6.906-12.044" transform="translate(7.284 0.098)" fill="none" stroke="#fff" stroke-linecap="round" stroke-linejoin="round" stroke-width="4"/>
      <line id="Linie_63" data-name="Linie 63" y2="14.71" transform="translate(79.29 270.753)" fill="none" stroke="#fff" stroke-linecap="round" stroke-width="4"/>
    </g>
  </g>
</svg>