<svg xmlns="http://www.w3.org/2000/svg" width="28.027" height="28" viewBox="0 0 28.027 28">
  <g id="Suche_icon" data-name="Suche icon" transform="translate(0 0)">
    <path id="Pfad_53" data-name="Pfad 53" d="M20.458,18.649c1.424,1.416,2.839,2.819,4.25,4.226.981.978,1.967,1.951,2.934,2.943a1.265,1.265,0,0,1-.57,2.137,1.284,1.284,0,0,1-1.3-.4q-2.416-2.426-4.84-4.843c-.753-.754-1.506-1.508-2.269-2.273a11.329,11.329,0,0,1-9.575,2.245A11.191,11.191,0,0,1,2.1,18.064a11.479,11.479,0,1,1,18.353.584M11.5,2.538a8.928,8.928,0,1,0,8.92,8.967A8.923,8.923,0,0,0,11.5,2.538" transform="translate(0 0)" />
    <path id="Pfad_54" data-name="Pfad 54" d="M250.2,167.135V155.108a1.048,1.048,0,0,1,.233-.509,1.136,1.136,0,0,1,.852-.37l3.987-.018a5.846,5.846,0,0,1,1.567.173,4.1,4.1,0,0,1,1.567.805,3.943,3.943,0,0,1,1.074,1.347,4.3,4.3,0,0,1,.441,1.989,4.411,4.411,0,0,1-1.117,2.847,3.991,3.991,0,0,1-3.264,1.352h-3.221v4.488a1.061,1.061,0,0,1-2.119-.077m2.238-10.807a.425.425,0,0,0-.124.344q0,2.024.005,4.048h3.144a2.139,2.139,0,0,0,1.759-.709,2.389,2.389,0,0,0,.58-1.543,2.062,2.062,0,0,0-.911-1.86,2.647,2.647,0,0,0-1.505-.393l-2.679.007a.409.409,0,0,0-.27.106" transform="translate(-242.638 -149.548)"/>
  </g>
</svg>