<?xml version="1.0" encoding="UTF-8"?>
<svg xmlns="http://www.w3.org/2000/svg" width="14.942" height="26.417" viewBox="0 0 14.942 26.417">
  <path id="Zurueck" d="M11.8,26.086C8.184,22.526,2.383,16.716.78,15.048a2.57,2.57,0,0,1-.055-3.633c.029-.029.058-.058.088-.086a1.653,1.653,0,0,1,.124-.14c1.8-1.834,3.629-3.641,5.446-5.458L11.636.481c.732-.726,1.536-.627,2.469.276a2.09,2.09,0,0,1,.82,1.653,1.593,1.593,0,0,1-.488.915c-.788.8-4.065,4.106-8.585,8.6a2.1,2.1,0,0,0-.443,1.312A2.132,2.132,0,0,0,6.04,14.7c4.514,4.533,7.788,7.821,8.47,8.456a1.333,1.333,0,0,1,.425.7,1.827,1.827,0,0,1-.492,1.416,2.476,2.476,0,0,1-1.84,1.147h-.014a1.129,1.129,0,0,1-.791-.331" transform="translate(0 0)" fill="#fff" opacity="1"></path>
</svg>
