<svg xmlns="http://www.w3.org/2000/svg" width="64.625" height="42.352" viewBox="0 0 64.625 42.352">
  <path d="m52.891 32.733 3.32.594 5.178.924c.389.07.552.251.493.529s-.267.374-.66.3q-5.775-1.028-11.551-2.053a.582.582 0 0 0-.386.043c-.98.651-1.95 1.317-2.924 1.978a.865.865 0 0 1-.126.059l.039.08 2.708.483 10.87 1.917c.534.094 1.067.19 1.6.282.291.05.472.2.428.513-.036.259-.259.382-.588.324q-4.379-.771-8.757-1.548l-6.78-1.2c-.067-.012-.137-.011-.234-.018v2.817l2.621.454 9.14 1.573c1.387.239 2.775.473 4.161.714.346.06.511.267.431.537-.092.311-.323.344-.606.295-1.659-.288-3.32-.568-4.98-.853l-12.38-2.125Q36.2 38.029 28.49 36.708q-8.971-1.541-17.941-3.085c-3.331-.572-6.663-1.137-9.992-1.724a.771.771 0 0 1-.491-.3c-.18-.313.114-.61.525-.545.706.112 1.41.24 2.115.36.078.013.158.018.259.028A1.67 1.67 0 0 0 3 31.199c0-.716-.011-1.432 0-2.147.005-.246-.07-.347-.315-.385-.684-.105-1.364-.233-2.046-.353-.091-.016-.181-.035-.272-.054a.392.392 0 0 1-.344-.476.383.383 0 0 1 .477-.342 9.668 9.668 0 0 1 1.5.257 2.442 2.442 0 0 0 2.481-.5 18.67 18.67 0 0 1 1.789-1.175c.1-.067.2-.141.389-.272-.542-.1-.989-.178-1.437-.256l-4.264-.733a2.366 2.366 0 0 1-.237-.048.406.406 0 0 1-.34-.485.389.389 0 0 1 .478-.343c.4.055.8.125 1.194.2a.84.84 0 0 0 .679-.136q8.111-5.307 16.232-10.6 1.666-1.087 3.331-2.177c.046-.03.088-.069.2-.156-.394-.072-.722-.137-1.051-.193L5.3 8.099Q2.9 7.688.5 7.274c-.37-.063-.543-.256-.484-.535.053-.253.275-.359.634-.3l8.36 1.416c.078.013.158.018.293.033V5.837c-.006-.648.085-.518-.544-.627C6 4.737 3.249 4.278.5 3.811c-.355-.06-.529-.243-.47-.512.065-.294.27-.379.55-.332l3.139.53q2.866.485 5.733.968a.462.462 0 0 0 .295-.024 31.87 31.87 0 0 0 2.372-1.626c-.49-.085-.979-.173-1.469-.256Q5.58 1.699.515.832A.723.723 0 0 1 .089.599a.415.415 0 0 1 0-.4.645.645 0 0 1 .472-.2c.777.1 1.549.246 2.322.378l10.3 1.752 11.29 1.919q6.91 1.171 13.82 2.339 7.2 1.222 14.4 2.451l11.191 1.9c.114.019.226.047.339.065a.4.4 0 0 1 .388.474c-.039.3-.25.4-.529.355-.342-.05-.684-.109-1.025-.167q-6.141-1.047-12.283-2.089a.709.709 0 0 0-.455.065c-.725.451-1.436.924-2.151 1.391-.055.036-.1.081-.218.171.729.126 1.391.243 2.054.356l11.669 1.981c.819.139 1.638.277 2.456.421.365.064.525.237.487.5s-.269.4-.647.336q-2.985-.508-5.97-1.02-4.914-.836-9.828-1.669c-.28-.048-.561-.092-.89-.146 0 .841-.009 1.634.014 2.427 0 .077.194.2.312.216 1.636.288 3.274.562 4.912.84q5.767.976 11.533 1.954a.677.677 0 0 1 .4.159c.088.117.154.374.088.455a.678.678 0 0 1-.5.239c-.607-.064-1.207-.185-1.81-.288q-4.333-.739-8.665-1.48-4.565-.774-9.14-1.547L34.8 13.099q-5.288-.9-10.575-1.806a1.032 1.032 0 0 0-.807.164Q14.833 17.08 6.233 22.681q-1.174.766-2.345 1.537c-.044.029-.084.065-.192.149l2.091.368c.591.1 1.18.217 1.774.3a4.91 4.91 0 0 1 1.674.8c2.585 1.451 5.147 2.946 7.749 4.366a5.536 5.536 0 0 0 1.732.41q7.1 1.173 14.209 2.326c1.6.262 3.205.556 4.816.775a5.447 5.447 0 0 0 1.472-.125c3.3-.479 6.6-.977 9.9-1.439a2.846 2.846 0 0 1 1.189.14 2.7 2.7 0 0 0 2.488-.489c3.28-2.213 6.615-4.345 9.93-6.507.058-.038.115-.077.174-.113a.41.41 0 0 1 .606.119.4.4 0 0 1-.149.6c-.567.377-1.139.747-1.708 1.119l-8.347 5.45-.4.269m-5.41.53c-.163 0-.215-.007-.266 0l-7.668 1.132a6.474 6.474 0 0 1-1.744.179c-2.125-.291-4.238-.667-6.355-1.014q-6.658-1.09-13.315-2.189a4.689 4.689 0 0 1-1.489-.382c-2.816-1.557-5.608-3.157-8.4-4.757a.615.615 0 0 0-.771.016c-.611.434-1.251.826-1.88 1.235l-1.27.824c.128.072.2.121.285.159q4.845 2.3 9.692 4.594a5.69 5.69 0 0 0 1.3.543c2.119.4 4.246.756 6.371 1.121q6.342 1.092 12.685 2.177a3.258 3.258 0 0 0 1.3.032c2.375-.528 4.757-1.024 7.137-1.534a6.961 6.961 0 0 0 1.776-.422 30.5 30.5 0 0 0 2.617-1.718M46.4 14.206a1.865 1.865 0 0 0 .033-.232c0-.681-.012-1.362 0-2.043.006-.25-.081-.336-.322-.377q-5.457-.918-10.911-1.855L23.531 7.721l-11.223-1.9c-.7-.119-1.4-.235-2.157-.361 0 .766.017 1.49-.008 2.213-.011.314.105.406.4.455 3.322.556 6.641 1.127 9.961 1.691q5.833.991 11.667 1.977l12.211 2.074c.667.113 1.335.224 2.02.339m2.827-5.088-.8-.137-18.355-3.12c-5.218-.887-10.437-1.766-15.65-2.68a2 2 0 0 0-1.754.365c-.457.366-.979.651-1.47.974-.07.046-.132.1-.238.187.221.047.388.088.557.116Q19.858 6.241 28.2 7.653q8.984 1.526 17.97 3.062a1.091 1.091 0 0 0 .9-.178c.571-.41 1.173-.776 1.763-1.161l.393-.258M11.99 32.999l.022-.079-8.158-3.867c0 .79.014 1.513-.007 2.234-.008.274.1.344.346.386 1.58.261 3.157.54 4.735.811q1.53.263 3.062.52m32.626 5.605v-2.664l-6.694 1.429.005.087 6.688 1.148" fill="#fff"/>
</svg>