<svg xmlns="http://www.w3.org/2000/svg" width="60.343" height="31.404" viewBox="0 0 60.343 31.404">
  <g fill="none" stroke="#fff">
    <g transform="translate(4.615 17.404)" stroke-width="3">
      <circle cx="7" cy="7" r="7" stroke="none" />
      <circle cx="7" cy="7" r="5.5" />
    </g>
    <g transform="translate(41.615 17.404)" stroke-width="3">
      <circle cx="7" cy="7" r="7" stroke="none" />
      <circle cx="7" cy="7" r="5.5" />
    </g>
    <path stroke-width="2" d="M43.115 25.904h-26" />
    <path d="M5.975 25.904c-3.753-.424-4.842-2.351-4.963-4.711s1.592-10.463 11.1-10.7c2.663-7.627 3.194-9.488 5.629-9.488h17.157c6.37 2.518 9.275 7.905 11.031 9.9 3.464 1.386 10.27 2.1 11.4 3.607a14.775 14.775 0 0 1 1.873 8.965c-.562 2.825-5.039 2.429-5.039 2.429" stroke-linecap="round" stroke-linejoin="round" stroke-width="2" />
    <path stroke-width="2" d="M31.115 1v11" />
    <path d="M46.063 11.093H22.639a3 3 0 0 1-3.265-3.265V1.65" stroke-linecap="round" stroke-linejoin="round" stroke-width="2" />
  </g>
</svg>