<svg xmlns="http://www.w3.org/2000/svg" width="65.338" height="28.069" viewBox="0 0 65.338 28.069">
  <g fill="none" stroke="#fff">
    <g transform="translate(4.62 14.069)" stroke-width="3">
      <circle cx="7" cy="7" r="7" stroke="none" />
      <circle cx="7" cy="7" r="5.5" />
    </g>
    <g transform="translate(45.62 14.069)" stroke-width="3">
      <circle cx="7" cy="7" r="7" stroke="none" />
      <circle cx="7" cy="7" r="5.5" />
    </g>
    <path stroke-width="2" d="M47.12 22.569h-30" />
    <path d="M5.72 22.569c-1.967-.726-4.721.139-4.715-6.727a33.019 33.019 0 0 1 .7-6.038S5.267 1.926 9.746 1.26c2.093 0 24.329.422 24.329.422 2.239.424 9.321 5.761 11.8 8.122 3.464 1.386 12.859 1.548 15.616 2.834s3.168 4.137 2.606 6.962-5.583 2.969-5.583 2.969" stroke-width="2" />
    <path stroke-width="2" d="M20.12 1.569v8.096" />
    <path d="M45.62 9.669H11.188c-.134 0-1.623-.367-1.194-1.657a71.288 71.288 0 0 1 3.8-6.629" stroke-linecap="round" stroke-width="2" />
    <path stroke-width="2" d="M30.12 1.569v8.096" />
  </g>
</svg>