<svg xmlns="http://www.w3.org/2000/svg" width="28.941" height="32" viewBox="0 0 28.941 32">
  <g fill="#fff">
    <path d="M9.861 7.121a4.615 4.615 0 1 1 4.537 4.8 4.636 4.636 0 0 1-4.537-4.8m4.567-3.3a3.47 3.47 0 1 0 3.557 3.5 3.495 3.495 0 0 0-3.557-3.5"/>
    <path d="M7.906 10.746C6.6 6.491 7.353 3.475 10.114 1.435a7.226 7.226 0 0 1 8.433-.15c2.894 2 3.674 4.879 2.507 9.406.381.039.75.078 1.12.114a4.16 4.16 0 0 1 4.088 3.575q1.309 6.078 2.548 12.17c.644 3.191-1.115 5.4-4.385 5.42q-9.995.063-19.99 0C1.343 31.949-.46 29.814.1 26.789q1.181-6.353 2.592-12.663c.59-2.661 2.641-3.39 5.212-3.38m2.131 1.127c-1.115.064-1.89.134-2.665.148-2.258.041-3.2.76-3.657 2.921q-1.263 6-2.473 12.01c-.446 2.237.76 3.814 3.014 3.827q10.233.057 20.466 0c2.227-.013 3.457-1.642 3.011-3.851q-1.212-6.01-2.476-12.009c-.439-2.093-1.385-2.856-3.513-2.889-.825-.013-1.65 0-2.923 0 2.394-3.855 2.549-7.084-.836-9.732a5.85 5.85 0 0 0-7.033.012c-3.376 2.657-3.219 5.881-.911 9.567"/>
    <text transform="translate(6.941 13)" font-size="12" font-family="Roboto-Regular, Roboto"><tspan x="0" y="13">KG</tspan></text>
  </g>
</svg>
